<?xml version="1.0" encoding="utf-8"?>
<!-- Generator: Adobe Illustrator 23.0.6, SVG Export Plug-In . SVG Version: 6.00 Build 0)  -->
<svg version="1.1" id="Layer_1" xmlns="http://www.w3.org/2000/svg" xmlns:xlink="http://www.w3.org/1999/xlink" x="0px" y="0px"
	 viewBox="0 0 841.9 595.3" style="enable-background:new 0 0 841.9 595.3;" xml:space="preserve">
<style type="text/css">
	.st0{fill-rule:evenodd;clip-rule:evenodd;fill:#D7141F;}
	.st1{fill-rule:evenodd;clip-rule:evenodd;fill:#FFF8F1;}
	.st2{fill-rule:evenodd;clip-rule:evenodd;fill:#FCEBE1;}
	.st3{fill-rule:evenodd;clip-rule:evenodd;fill:#FDF0E7;}
	.st4{fill-rule:evenodd;clip-rule:evenodd;fill:#75452A;}
	.st5{fill-rule:evenodd;clip-rule:evenodd;fill:#D82525;}
	.st6{fill-rule:evenodd;clip-rule:evenodd;fill:#DC352F;}
	.st7{fill-rule:evenodd;clip-rule:evenodd;fill:#BCA492;}
	.st8{fill-rule:evenodd;clip-rule:evenodd;fill:#B0A69F;}
	.st9{fill-rule:evenodd;clip-rule:evenodd;fill:#FDF8F1;}
	.st10{fill-rule:evenodd;clip-rule:evenodd;fill:#FFF6EF;}
	.st11{fill-rule:evenodd;clip-rule:evenodd;fill:#E78073;}
	.st12{fill-rule:evenodd;clip-rule:evenodd;fill:#D71821;}
	.st13{fill-rule:evenodd;clip-rule:evenodd;fill:#734939;}
	.st14{fill-rule:evenodd;clip-rule:evenodd;fill:#5E4338;}
	.st15{fill-rule:evenodd;clip-rule:evenodd;fill:#543830;}
	.st16{fill-rule:evenodd;clip-rule:evenodd;fill:#5C3C2D;}
	.st17{fill-rule:evenodd;clip-rule:evenodd;fill:#845B4A;}
	.st18{fill-rule:evenodd;clip-rule:evenodd;fill:#806155;}
	.st19{fill-rule:evenodd;clip-rule:evenodd;fill:#7D5A4D;}
	.st20{fill-rule:evenodd;clip-rule:evenodd;fill:#AAA29F;}
	.st21{fill-rule:evenodd;clip-rule:evenodd;fill:#6F4F46;}
	.st22{fill-rule:evenodd;clip-rule:evenodd;fill:#84665B;}
	.st23{fill-rule:evenodd;clip-rule:evenodd;fill:#6C4A3F;}
	.st24{fill-rule:evenodd;clip-rule:evenodd;fill:#99857D;}
	.st25{fill-rule:evenodd;clip-rule:evenodd;fill:#DA302B;}
	.st26{fill-rule:evenodd;clip-rule:evenodd;fill:#91786C;}
	.st27{fill-rule:evenodd;clip-rule:evenodd;fill:#402720;}
</style>
<g>
	<path class="st0" d="M768.5,351.2c8.4,18,16.7,36,25,53.9c8.2,17.7,16.5,35.4,25,53.8c-49.7-0.1-98.4-0.5-147.4-1.4
		c-37.8,56.1-88.1,96.3-152.4,117.8c-64.3,21.6-128.7,21.1-192.6-1.6c-64-22.7-113.7-63.6-150.7-120.9c-25.1-0.4-50.4-0.3-75.7-0.6
		c-25.1-0.3-50.2-0.6-75.2-1c-1.3-1.7,0-2.8,0.6-4c8.4-17,16.9-33.9,25.4-50.9c7.9-15.9,15.8-31.7,23.8-47.6
		c0.8-1.6,1.6-3.3,2.6-5.3C60.7,308.3,44.4,273,28.3,237.9c0.8-2.6,2.3-3.7,4.6-3.6c1.4,0.1,2.9,0,4.3,0c31,0,62.1,0.1,93.1,0.1
		c2.2,0,4.5,0,7,0c19.1-80,62.7-142.8,132.2-186.7C320.2,15.8,375.8,1.4,435.4,3.7c67,2.5,126.6,25.4,178,68.5
		c51.2,43,83.7,97.7,98.5,163.1c9.2,0.5,18.1,0.2,27.1,0.3c8.8,0.1,17.6,0,26.3,0c9,0,18,0,26.9,0c8.8,0,17.5,0,26.3,0
		c1.1,2.3-0.4,3.8-1.1,5.3c-13,29.5-26.1,58.9-39.2,88.3C775.1,336.6,771.8,343.8,768.5,351.2 M120.6,351c0.2,0.2,0.3,0.5,0.5,0.6
		c0,0,0.3-0.1,0.4-0.2c-0.2-0.2-0.4-0.4-0.7-0.6c-0.7-3.3-1.5-6.6-2.3-10.1c2.8-2.2,5.6-4.4,8.9-6.9c-4.3-1.7-8.3,0.2-11.6-1.4
		c-2-3.2-1.9-7-4.3-10.3c-1.4,3.8-2.5,7-3.6,10.2c-3.7,1.8-7.7-0.3-11.8,1.6c3.2,2.5,6,4.7,9,7c-0.8,2.7-1.6,5.1-2.4,7.7
		c-0.2,0.9-0.8,1.9,0.7,2.7c2.7-1.8,5.5-3.7,8.4-5.6c2.2,1.5,4.1,3,6.1,4.3C118.7,350.5,119.7,350.7,120.6,351 M144.5,295.8
		C145,452.7,271,575.4,423.7,575.6c153.5,0.2,279.7-122.9,280-278.9C704.1,141,579.1,16.9,425,16.5
		C270.9,16.1,145.3,139.4,144.5,295.8 M736.3,340.7c-2.5-3.1-1.9-7.4-4.9-10.4c-1.3,3.7-2.4,6.9-3.6,10.3c-1.3,0.1-2.5,0.2-3.7,0.3
		c-1.4,0-2.9-0.1-4.3,0c-1,0.1-2.4-0.6-3.1,1.1c2.5,2.5,6,3.9,8.3,6.7c-0.3,3.8-2.7,6.9-2.4,11c3.4-2.3,6.4-4.3,9.1-6.2
		c3.7,1.6,5.9,4.7,10,6c-1.1-4-2.1-7.5-3-10.7c2.5-3.1,6.2-4.3,8.9-7.7C743.3,340.9,739.7,340.8,736.3,340.7"/>
	<path class="st1" d="M144.5,295.8C145.3,139.4,270.9,16.1,425,16.5C579.1,16.9,704.1,141,703.7,296.7
		c-0.3,156-126.5,279.2-280,278.9C271,575.4,145,452.7,144.5,295.8 M322.9,461c0.6,0.5,1.2,1,1.7,1.5c-3.6,5.9-7,11.9-10.7,17.8
		c-2.2,3.4-4.6,6.7-7.2,9.9c-1.5,1.9-3.4,3.5-5.4,5c-1.2,0.9-2.9,1.4-4.5,1.6c-3.4,0.4-5.1-1.5-4.4-4.7c0.2-1.1,1-2.2,1.7-3.1
		c0.5-0.6,1.4-0.8,2-1.4c2-1.8,2.9-4.8,2-6.6c-1-2.1-4.1-3.8-6.7-3.4c-3.2,0.4-5.9,1.8-7.5,4.7c-2.3,4.3-2.4,8.6,0,12.8
		c2.2,3.9,5.6,6.5,9.8,7.8c9,2.8,16.9,0.5,23.9-5.4c4.8-4,7.9-9.3,10.2-15c1.1-2.8,2-5.7,3.1-8.7c2.3-0.9,4.6-1.7,6.8,0.3
		c0.8,3.2-0.8,6-1.7,8.9c-1,3.5-2.5,7-3,10.5c-0.7,5,2.2,7.7,7.2,7.3c4.1-0.3,7.4-2.4,10.1-5.2c3.6-3.6,7-7.4,10.5-11.1
		c0.5,0.4,0.9,0.9,1.4,1.3c-1,3.1-2.7,5.9-2.6,9.3c0.1,3.6,3.3,6.1,6.7,5c1.7-0.5,3.4-1.4,4.9-2.5c4.7-3.2,9-7,12.6-11.4
		c1.1-1.3,2.2-2.6,3.3-3.9c-0.5,3.4-1.6,6.4-2.4,9.5c-1,3.9,1.7,7.6,5.6,7.6c1.8,0,3.7-0.5,5.2-1.2c2.4-1.1,4.6-2.6,6.7-4.2
		c2.9-2.2,5.7-4.6,8.6-7c0.4,1.8,0.7,3.4,1.2,4.8c2,5.4,6.4,7.7,12.1,6.5c4.1-0.8,7.7-2.7,10.8-5.3c5-4.1,9.9-8.4,13.9-13.6
		c0.4,0.5,0.9,0.9,1.3,1.4c-1.4,2.9-2.9,5.8-4.3,8.7c-0.5,1.1-1,2.2-1.5,3.3c-0.2,0.6-0.3,1.2-0.4,1.8c-0.2,2.2,2,3.9,4.1,3.1
		c3.5-1.4,6.3-3.7,8.6-6.6c2.8-3.5,5.5-7.1,8.3-10.6c0.8-1,1.6-2.5,3.8-2c-0.2,1.5-0.3,3.1-0.7,4.6c-0.6,2.1-1.4,4.3-2.2,6.3
		c-1.2,3-0.3,5.2,2.1,6.9c1,0.7,2.1,1.1,3.4,1.8c2.2-1.3,4.4-2.3,6.4-3.7c2.2-1.5,4.1-3.3,6.2-5c1.8-1.4,3.1-3.6,5.8-4.6
		c0,1.4-0.1,2.4,0,3.4c1.1,6.6,6.1,10.1,12.8,8.8c3.1-0.6,5.8-1.8,8.4-3.5c4.3-2.8,8.1-6.2,11.3-10.1c1.7-2,3.4-4,5.1-6
		c0.1,0.8,0.2,1.5,0.3,2.3c-1.7,3.5-3.4,6.9-5.1,10.4c-1.4,2.9-1.4,4.4,0,5.5c1.8,1.5,3.6,0.4,5.1-0.4c2.9-1.6,5-4.1,7-6.7
		c3.6-4.7,7.4-9.2,11.1-13.8c0.4-0.5,0.8-0.9,1.3-1.2c0.6-0.3,1-1.3,2.2-0.3c-0.3,0.8-0.7,1.7-1.1,2.6c-1.4,3.2-2.9,6.3-4.1,9.5
		c-0.7,1.7-1.2,3.5-1.4,5.3c-0.3,2.2,1.1,4,3.2,4.5c2.3,0.6,4.6,0.1,6.5-1.1c5.5-3.6,10.3-8,14.4-13.1c0.4-0.5,0.7-1.1,0.7-1.7
		c0-0.5-0.1-1.3-0.5-1.6c-0.3-0.3-1.3-0.2-1.6,0c-1.1,0.9-1.9,2.1-3,3.1c-1.6,1.5-3.2,3-6,3.4c0.3-1.5,0.3-2.7,0.7-3.7
		c1.3-3,2.8-5.9,4.1-8.9c1-2.2,2.1-4.5,2.8-6.8c0.8-2.6-0.1-4.3-2.6-5.5c-1.5-0.7-2.7-0.2-4,0.5c-4.4,2.3-8.1,5.5-11.7,8.8
		c-0.6,0.6-1.5,0.8-2.5,1.3c-0.2-8.1-0.6-8.7-6-10.9c-2.8,1.5-4.3,4.2-5.9,6.8c-4.5,7.4-10.3,13.6-16.6,19.4
		c-2.4,2.2-5.1,4.1-8.4,4.9c-2.4,0.5-3.5-0.6-3.7-3.9c1.7-0.9,3.6-1.8,5.3-2.8c5-2.9,9.3-6.7,12.2-11.8c1.5-2.6,1.9-5.4,0.1-8.1
		c-1.9-2.7-5.1-4-8.7-2.8c-2.7,0.9-5.3,2.1-7.7,3.7c-4,2.6-7.1,6.1-10.2,9.6c-2.9,3.4-6.1,6.5-9.3,9.7c-0.6,0.6-1.3,1-2,1.4
		c-1.4,0.6-2.3,0.2-2.8-1.6c1.8-3.5,3.7-7.1,5.4-10.7c0.9-1.8,1.8-3.7,2.3-5.6c1.1-3.7-1.6-6.5-5.4-5.7c-1.4,0.3-2.8,0.7-4,1.4
		c-2.5,1.3-5,2.8-7.5,4.1c-0.6,0.3-1.4,1-2.5-0.1c0.3-0.7,0.5-1.7,0.9-2.5c1.7-3.7,3.6-7.3,5.3-11c0.7-1.6,1.8-3.3,1.1-5.2
		c-0.9-2.5-1.7-5-3.8-6.9c-0.9-0.8-2.4-0.8-3.3,0.2c-0.6,0.6-1.1,1.2-1.5,1.9c-1.4,2.7-2.8,5.4-4.1,8.2
		c-6.5,13.9-15.7,25.7-27.2,35.8c-1.5,1.3-3.3,2.5-5.1,3.3c-4.5,2.1-6.9,0.4-6.1-4.4c1-6.4,3.9-12,8.5-16.6c0.5-0.5,1.3-0.6,2.3-1
		c-0.4,1.9-0.9,3.4-1.1,4.9c-0.2,1.9,1.6,3.4,3.5,3.3c2.9-0.2,5.9-3.1,6.5-6.4c0.6-3.4-0.7-6.4-3.7-7.6c-2.5-1-5-1.5-7.8-0.8
		c-3.5,0.8-6.5,2.5-9,5c-3.1,3.2-6,6.7-9.2,9.8c-3.7,3.8-7.6,7.4-11.5,11c-1,0.9-2.4,1.3-4,2.1c-0.1-1.3-0.5-2.2-0.3-2.8
		c2.7-6.6,5.6-13,9.7-19c1.9-0.1,3.5-0.3,5.1-0.4c2.1-0.2,3.2-1.4,3.4-3.9c-1.8-0.5-3.7-1.1-5.6-1.7c0.2-0.8,0.5-1.5,0.7-2.3
		c1.2-3.9-0.7-6.7-3.5-9.1c-0.9-0.8-2.6-0.6-3.3,0.3c-0.7,1-1.3,2.1-1.9,3.1c-1.6,2.8-3.3,5.6-4.8,8.1c-2.1,0.6-3.9,1.1-5.6,1.7
		c-1.2,0.4-1.5,1.6-1,3c0.3,0.7,0.8,1.3,1.2,1.9c-5.5,7.4-11.2,14.1-19.2,20c0.5-2.3,0.6-3.7,1-5c1.2-3.3,2.4-6.5,3.8-9.7
		c1.5-3.7,0.5-6.8-2.2-9.5c-1.3-1.3-2.7-1.8-4.4-0.9c-1.2,0.6-2.4,1.6-3.2,2.6c-1.7,2.3-3.2,4.7-4.9,7c-2.5,3.5-5.1,6.9-7.8,10.2
		c-1.2,1.5-2.7,2.5-4.8,1.7c-1.6-1.9-0.6-3.9-0.2-5.8c0.6-3,1.7-5.9,2.1-8.9c0.5-3.5-1.7-5.8-5.3-6c-1.7-0.1-3.4,0.7-5.7,0
		c2.6-3.2,4.7-6.1,7.5-8.5c3.8-3.3,8.2-4.8,13-3.1c2.8,1,5.2,0.6,7.5-1c2.2-1.5,3.9-3.6,4.7-6.2c0.9-3.3-1.3-6.7-5-6.7
		c-3.8,0-7.4,1-10.4,3c-3.9,2.6-7.6,5.5-11,8.7c-4.4,4.2-8.4,8.9-12.7,13.3c-0.6,0.6-0.9,1.9-2.4,1.2c0-0.6,0-1.2,0.1-1.7
		c1.9-5.6,4.1-11.1,7.3-16.1c0.7-1.2,1.6-2.4,2.1-3.7c0.2-0.6,0-1.7-0.5-2.1c-0.5-0.4-1.6-0.6-2.2-0.4c-1.1,0.4-2.1,1.1-3,1.9
		c-2.4,2.2-4.7,4.5-7.1,6.7c-2.3,2.1-4.7,4-7.8,4.5c-1.3,0.2-2.9,0.1-4.1-0.4c-3-1.2-3.6-3.9-1.6-6.4c0.8-0.9,1.8-1.7,2.4-2.7
		c0.5-0.8,0.7-1.8,1-2.8c-0.9-0.3-1.5-0.7-2-0.6c-5.6,1.2-10.3,4.1-13.3,9c-4,6.5-1.2,12.8,7.4,13.9c1,0.1,2.1-0.1,3-0.4
		C318,463.1,320.4,462,322.9,461 M198.6,424.8c1.5,0.1,2.3,0.2,3.1,0.2c147,0,293.9-0.1,440.9-0.1c0.2,0,0.4,0,0.6-0.1
		c0.2-0.1,0.3-0.2,1.1-0.8c1.8-3.6,3.8-7.8,5.9-11.9c8.2-16.5,13.9-33.9,18.2-51.8c2.5-10.5,4.1-21.2,5.2-32
		c2-20.6,1.9-41.2-0.6-61.7c-2.6-21.4-8-42-15.9-62c-6.8-17.3-15.4-33.7-25.8-49.2c-18.9-28.1-42.4-51.6-70.6-70.5
		c-14.3-9.6-29.4-17.7-45.2-24.1c-22.8-9.2-46.5-15.2-71-17.1c-20.6-1.7-41.1-1.2-61.6,1.9c-21.7,3.3-42.5,9.5-62.6,18.2
		c-29.3,12.8-55.1,30.8-77.7,53.3c-22.4,22.3-39.7,48-52.7,76.7c-6.5,14.3-11.5,29.2-15.2,44.5c-6.2,25.4-8.3,51.1-6.9,77.1
		c1.1,18.8,3.8,37.3,9.1,55.4c3.6,12.4,7.9,24.5,13,36.2C192.5,413,195.6,418.7,198.6,424.8 M425.3,534.4c-1.5,4.1-2.8,7.5-4.1,10.9
		c-3.6,0.2-6.9,0.3-11.3,0.5c3.5,2.7,6.2,4.8,9,7.1c-0.9,2.6-1.7,5.1-2.5,7.6c-0.3,0.8-1,1.8,0.3,2.7c2.8-1.9,5.5-3.9,8.3-5.9
		c3.2,2.1,6,4,9.6,6.5c-1.2-4.3-2.1-7.8-3-11c2.4-2.9,6-3.9,8.1-7c-3.8-1-7.3,0.2-10.8-0.9C427.9,541.6,426.8,538.4,425.3,534.4
		 M454.2,541.3c2.9,2.5,4.9,4.3,6.8,5.9c-0.7,2.8-1.4,5.1-2.2,8.3c2.9-1.8,5.1-3.2,7.1-4.6c2.8,0.7,4.4,3.5,7.5,4
		c-0.8-2.8-1.4-5.3-2-7.5c1.6-2.7,4.7-3.2,6.1-6c-3-0.2-5.5-0.4-8.3-0.5c-0.6-1.7-1-3.2-1.7-4.7c-0.3-0.8-0.9-1.6-1.7-2.7
		c-1.1,2.8-1.9,5.1-2.8,7.4C460.4,541,458,541.1,454.2,541.3 M383.5,533.6c-2.5,2.1-1.7,5.4-3.9,7.2c-2.4,1-5.1-0.3-7.8,0.9
		c1.7,2.7,5.1,3.2,6.1,6c-0.7,2.4-1.3,4.8-2.2,7.8c3-1.8,5.3-3.3,7.5-4.7c2.6,1.2,4.2,3.4,7.2,4.1c-0.7-2.9-1.4-5.4-1.9-7.5
		c1.5-2.7,4.8-3.1,5.9-6c-3-0.2-5.5-0.4-8.1-0.6C385.3,538.3,384.5,536.1,383.5,533.6 M390.3,448.7c0-2.9-1.2-4.4-4.1-5.1
		c-2.8-0.7-5.4,0-7.1,2.2c-1.3,1.7-2.5,3.7-3,5.8c-1.2,4.6,2.6,7.9,7.2,6.6C387.2,457.1,390.2,453.1,390.3,448.7"/>
	<path class="st2" d="M120.6,351c-0.9-0.3-1.9-0.5-2.7-1c-2-1.3-4-2.8-6.1-4.3c-2.9,1.9-5.7,3.8-8.5,5.6c-1.4-0.9-0.9-1.9-0.7-2.7
		c0.7-2.5,1.5-5,2.4-7.7c-3-2.3-5.8-4.5-9-7c4-1.9,8.1,0.1,11.8-1.6c1.1-3.2,2.3-6.4,3.6-10.2c2.4,3.3,2.4,7.1,4.3,10.3
		c3.3,1.6,7.4-0.3,11.6,1.4c-3.3,2.6-6.1,4.8-8.9,6.9c0.8,3.5,1.5,6.8,2.3,10.1L120.6,351z"/>
	<path class="st3" d="M736.3,340.7c3.4,0.1,7,0.3,11.2,0.4c-2.7,3.4-6.4,4.6-8.9,7.7c0.9,3.3,1.9,6.7,3,10.7c-4-1.3-6.3-4.4-10-6
		c-2.8,1.9-5.7,3.9-9.1,6.2c-0.4-4.2,2.1-7.2,2.4-11c-2.2-2.7-5.7-4.2-8.3-6.7c0.7-1.7,2.1-1,3.1-1.1c1.4-0.1,2.8,0,4.3,0
		c1.2,0,2.4-0.2,3.7-0.3c1.2-3.4,2.3-6.6,3.6-10.3C734.5,333.2,733.9,337.6,736.3,340.7"/>
	<path class="st2" d="M120.9,350.9c0.2,0.2,0.4,0.4,0.7,0.6c-0.1,0.1-0.4,0.2-0.4,0.2c-0.2-0.2-0.3-0.4-0.5-0.6
		C120.6,351,120.9,350.9,120.9,350.9"/>
	<path class="st0" d="M198.6,424.8c-3-6.1-6.1-11.8-8.7-17.8c-5.2-11.8-9.5-23.8-13-36.2c-5.2-18.1-8-36.6-9.1-55.4
		c-1.5-26,0.7-51.8,6.9-77.1c3.7-15.3,8.7-30.2,15.2-44.5c13-28.7,30.4-54.4,52.7-76.7c22.6-22.5,48.4-40.5,77.7-53.3
		c20.1-8.8,40.9-14.9,62.6-18.2c20.5-3.1,41-3.6,61.6-1.9c24.5,2,48.2,7.9,71,17.1c15.9,6.4,31,14.5,45.2,24.1
		c28.1,18.9,51.7,42.4,70.6,70.5c10.4,15.4,18.9,31.9,25.8,49.2c7.9,20,13.4,40.7,15.9,62c2.5,20.5,2.6,41.1,0.6,61.7
		c-1.1,10.8-2.7,21.5-5.2,32c-4.3,17.9-10.1,35.3-18.2,51.8c-2.1,4.2-4.1,8.4-5.9,11.9c-0.8,0.6-0.9,0.7-1.1,0.8
		c-0.2,0.1-0.4,0.1-0.6,0.1c-147,0-293.9,0.1-440.9,0.1C200.9,425,200.1,424.9,198.6,424.8 M441.8,67.8c-0.4,0.4-0.8,0.8-1.2,1.2
		c-3.6,1.1-6.2,3.7-9.1,5.9c-4.3,3.4-8,7.5-10.6,12.4c-3.2,6-4.4,12.1-1.8,18.7c0.5,1.1,0.6,2.3,0.9,3.5c-0.5,0-0.9,0-1.4,0
		c-2.4-3.1-5.3-5.6-9.1-7c-0.9-0.3-1.9-0.9-2.9,0.3c3.4,3.9,2.8,8.2,0.7,12.4c-2.4,4.7-5.4,9-9.1,12.8c-28.1,0-55.8,0-83.6,0
		c-0.2,0-0.4,0-0.6,0.1c-0.2,0-0.4,0.1-0.6,0.2c-0.2,0.1-0.3,0.2-0.8,0.7c-0.1,1.9-0.4,4.1-0.3,6.3c0.1,6.1,0.3,12.2,0.6,18.4
		c0.9,18,4.4,35.6,10.2,52.7c6.2,18.3,15,35.2,27.8,50c8.6,10,18.6,18.3,30.6,24c15.7,7.4,32.1,9.1,48.8,4.3
		c11.6-3.3,21.7-9.3,30.7-17.2c8.8-7.7,16.2-16.7,22.4-26.6c1.5-2.4,3-4.8,4.4-7.1c0.6-0.3,1-0.5,1.4-0.5c1.4-0.3,2.8-0.7,4.2-1
		c14.8-3.1,27.4-10.1,38.4-20.4c5.9-5.5,10.3-12.1,13.6-19.5c3.2-7.1,4.1-14.6,2.6-22.2c-2.6-13.7-14.3-21.7-25.1-23.8
		c-2-0.4-4-0.7-6-1c-2-0.3-4-0.4-6.2-0.6c-0.7-5.7,0.3-11.1-0.6-16.9h-6.3c-24.3,0-48.6,0-72.9,0c-1,0-2.5,0.8-3-0.7
		c2.6-3.1,5.3-5.9,7.5-9c4.7-6.8,6.3-14.1,3-22c-0.3-0.7-0.5-1.6-0.8-2.3c-3.5-8.7-2.8-16.7,3.7-23.9c0.8-0.7,1.6-1.4,2.4-2.1
		c0.4-0.2,0.7-0.4,1.1-0.6c0.4-0.4,0.8-0.8,1.2-1.3c-0.8-0.7-1.5-0.3-2,0.4L441.8,67.8z M419.1,404.5c-0.5-1.9-0.8-3.5-1.3-5.1
		c-3.6-11.9-7.3-23.8-10.9-35.7c-0.4-1.3-0.6-2.7-0.8-3.8c0.5-0.6,0.7-1,1.1-1.2c7-4.5,9.9-11,9.8-19.2c-0.1-7.1,0-14.3,0.3-21.4
		c0.5-11.4-9.4-20.2-19.5-20.1c-7.8,0.1-15.5,0.1-23.3,0.2c-1.1,0-2.3,0.5-3.5,0.9c-0.1,1.6-0.3,3.1-0.3,4.5
		c-0.1,6.5-0.2,13.1-0.3,19.6c-0.5,26.1-1,52.2-1.4,78.4c0,1.3,0.5,2.7,0.8,4.2c3.4,0,6.4,0.2,9.5,0c2.9-0.2,6.1,0.9,9-1.4
		c0.3-11.3,0.6-22.6,1-35.5c1.4,2.7,1.9,4.2,2.3,5.7c2.1,7.2,4.2,14.5,6.3,21.7c0.6,2,1.2,3.9,1.7,5.9c0.6,2.3,2.2,3.4,4.5,3.4
		c4.3,0,8.6,0,12.9-0.1C417.3,405.4,417.9,405,419.1,404.5 M593,361.9c-0.1,0-0.3,0-0.4,0c0,5.7,0,11.4,0,17.1
		c0,5.7,0.1,11.4-0.2,17.1c-0.6,10.9,8.4,21,18.5,22.4c3.8,0.5,7.7,1.1,11.5,1c8.9-0.2,15.7-7,16.5-15.8c0.1-1.2,0.1-2.4,0.1-3.7
		c0.2-13.4,0.5-26.9,0.7-40.3c0.2-9.6,0.4-19.1,0.4-28.7c-0.1-10.4-8-19.7-18.2-21.7c-2.6-0.5-5.2-0.8-7.9-1.1
		c-12-1.1-20.7,7.8-20.6,18.2C593.7,338.3,593.2,350.1,593,361.9 M507.4,331.1c5.6-0.3,11.1-1.8,16.6-2.9c1.2-0.2,2.1-1.3,2.1-2.7
		c0-2.6,0.3-5.3,0-7.9c-0.9-8.9-8.5-16.9-17.3-18.1c-3-0.4-6.1-0.7-9.1-0.7c-13.3,0-20.5,10.3-20.2,19.2c0.2,5.5-0.2,11-0.4,16.5
		c-0.2,5.5,1.6,9.8,6.1,13.2c5.5,4.2,10.7,8.8,16.2,13c3.3,2.5,4.6,5.5,4.5,9.4c-0.2,5.9-0.2,11.8-0.3,17.7c0,0.8,0,1.6-0.2,2.4
		c-0.3,1.3-1.2,2.1-2.5,2.3c-2.9,0.5-4.8-0.8-5-3.8c-0.1-1.2,0-2.4,0-3.7c0.1-4.5,0.2-9,0.2-13.5c0-1.1-0.4-2.2-0.7-3.7
		c-6.4,1.5-12.7,1.7-18.3,4.3c-0.2,1-0.4,1.6-0.4,2.2c-0.1,4.9-0.1,9.8-0.2,14.7c-0.3,8.7,6.6,17.2,15.7,19.4
		c4.6,1.1,9.3,1.4,14,0.9c9.2-0.9,16.6-8.2,17-17.2c0.4-9.4,0.3-18.8,0.4-28.1c0-4.1-1.6-7.5-4.9-10c-1-0.7-1.9-1.5-2.9-2.3
		c-4.9-3.9-9.8-7.9-14.8-11.8c-2.4-1.9-4.1-4.1-4.1-7.2c0-4.7,0.2-9.4,0.4-14.1c0.1-2.1,1.7-3.4,3.7-3.3c2,0.1,3.7,1.3,3.9,3.2
		c0.2,1.8,0,3.7,0.1,5.5C506.8,326.4,506.2,328.7,507.4,331.1 M300.2,327c0-3.3,0.1-6.1,0-9c-0.1-2.7-0.7-5.3-2.1-7.6
		c-3.8-6.4-9.6-9.2-16.9-9.2c-2,0-4.1,0.3-6.1,0.5c-12.7,1-21.4,10.1-21.7,22.8c-0.1,5.3,0.1,10.6-0.2,15.9
		c-0.3,5.5,1.9,9.3,6.4,12.2c5.2,3.3,10,7.1,15.2,10.2c4,2.4,5.5,5.7,5.3,10.2c-0.2,5.3-0.2,10.6-0.3,15.9c0,0.8,0,1.6-0.1,2.4
		c-0.4,2.6-2,3.9-4.7,3.8c-2.2-0.1-3.3-1.3-3.3-4.2c0-5.3,0.1-10.6,0.2-15.9c0-1.1-0.4-2.2-0.6-3.3c-3.4,0.5-14.9,4-16.7,5
		c-1.4,0.7-2.1,2-2.1,3.5c-0.1,5.3-0.5,10.6-0.2,15.9c0.4,6.7,4.1,13.5,13.4,15.6c7,1.6,14.3,1.1,20.9-2.2c8-4,12.2-10.6,12.5-19.6
		c0.2-8,0.3-15.9,0.4-23.9c0.1-5.8-2-10.1-7.2-13.1c-5.4-3.2-10.5-7-15.8-10.4c-2.7-1.7-3.9-4-3.8-7.1c0.1-4.1,0.1-8.2,0.2-12.2
		c0-0.4,0-0.8,0.1-1.2c0.4-2.4,2.4-4,4.8-3.8c1.7,0.1,3,1.6,3.1,3.9c0.1,2.4-0.2,4.9-0.1,7.3c0,1.1,0.4,2.3,0.7,4
		C287.8,331.3,293.9,330.1,300.2,327 M554.2,372.3c-5.8-0.3-15.4,1.5-19.3,3.6c-0.1,5.1-0.1,10.4-0.3,15.6
		c-0.5,10.6,8.1,19.3,16.4,20.8c3.8,0.7,7.7,0.9,11.5,1.1c9.2,0.6,18.7-6.9,18.7-18.4c0-8.2,0.1-16.3,0.3-24.5
		c0.1-5.2-1.5-9.6-5.9-12.8c-2-1.5-3.8-3.1-5.7-4.7c-3.9-3.3-7.8-6.6-11.8-9.8c-1.6-1.3-3.1-2.9-3.2-5c-0.1-5.5,0.1-11,0.3-16.5
		c0.1-1.6,2-2.7,3.6-2.4c2.3,0.3,3.7,1.7,3.8,4c0.1,2.6,0,5.3,0,8c0,1.2,0.3,2.3,0.5,3.4c5.8,0.1,14.3-1.3,18.3-3
		c0.2-0.5,0.5-1.1,0.6-1.7c0.1-1.8,0.2-3.7,0.1-5.5c-0.2-9.4-5.8-17.4-14.8-20.4c-5.7-1.9-11.6-2.3-17.5-1.2
		c-7.4,1.4-13.5,7.7-14.1,15c-0.6,7.3-0.6,14.7-0.6,22c0,3.9,1.6,7.1,4.6,9.6c2,1.7,4,3.4,6.1,5.1c4.2,3.6,8.4,7.1,12.6,10.7
		c2,1.6,3.3,3.6,3.3,6.3c0,7.1-0.1,14.3-0.2,21.4c-0.1,2.2-1.4,3.3-3.6,3.3c-2.2,0-3.7-1.1-3.9-3c-0.2-2-0.2-4.1-0.2-6.1
		C554.2,382.5,554.5,377.7,554.2,372.3 M314.1,300.8c-0.4,1.3-0.7,1.8-0.7,2.4c-0.5,34.1-1.1,68.2-1.6,102.2c0,0.6,0.3,1.1,0.5,1.9
		c0.7,0.2,1.5,0.7,2.2,0.6c5.3-0.3,10.5-0.7,15.4-1c1.7-2.3,1.2-4.4,1.3-6.4c0.2-11,0.3-22,0.5-33.1c0-1.3,0.4-2.7,0.6-4.2
		c2.8-0.1,5.2-0.1,7.7-0.3c10.6-0.8,19.2-9.4,19.6-20c0.3-8.6,0.4-17.1,0.3-25.7c-0.1-9.7-7.7-17.5-17.4-17.9
		C333,299.1,323.7,300.1,314.1,300.8 M469.9,299.7c-4.9-1.3-9.2-1-13.4-1.2c-4.5-0.2-9-0.2-13.5-0.2c-4.2,0-8.5-0.4-12.7,0.2
		c-1.1,2.3-0.8,4.3-0.8,6.3c-0.2,11.4-0.3,22.8-0.5,34.3c-0.3,20.8-0.7,41.6-1,62.4c0,1.2,0.3,2.3,0.5,3.5c4.5,1.3,8.8,0.6,13,0.8
		c4.5,0.2,9,0.2,13.5,0.2c4.2,0,8.5,0.7,12.6-0.3c1.2-5.2,1.3-12.5,0.1-17.4c-1.2-0.2-2.6-0.6-4-0.6c-4.1-0.1-8.2-0.1-12.2-0.3
		c-1.2,0-2.3-0.3-3.4-0.5c-0.6-6.7-0.2-25,0.6-29.8c5.5-0.9,11.2,0.6,17-0.6c0.7-4.9,0.4-9.6,0.4-14.2c0-1.1-0.6-2.2-0.9-3.3
		c-5.5-0.9-10.8,0-16.3-1c-0.1-1.1-0.4-2.1-0.4-3.1c0-4.9,0.1-9.8,0.3-14.7c0-1.1,0.5-2.2,0.7-3.1c3.7,0,6.9,0.1,10.2,0
		c3.2-0.1,6.5,1.3,9.7-0.8c0.1-1.3,0.3-2.7,0.4-4.1C470,308.2,469.9,304.1,469.9,299.7 M204.1,310.9c-1.4,34.7-1,69.2-2,103.6
		c0,0.8,0.4,1.5,0.6,2.2c4.8,0.5,32.9-2.4,39.1-4c1.1-4.7,0.4-9.6,0.6-14.4c0-0.9-0.4-1.9-0.6-2.9c-1.9,0-3.5-0.1-5.1,0
		c-3.9,0.3-7.7,0.8-11.6,1.1c-1.1,0.1-2.2-0.3-3.4-0.4c0.2-9.9,0.4-19.5,0.6-29.2c3-1.2,5.8-1.2,8.7-1.4c2.8-0.2,5.7-0.3,8.3-1.5
		c1-3,0.6-5.8,0.5-8.6c-0.1-2.9,1.2-6.1-0.9-9c-5.3,0.4-10.5,0.9-15.7,1.3c-1-5-0.9-16.1,0.2-20.9c6.5-1.7,13.3-0.9,20-2.9
		c0.7-6,1.1-11.5,0.2-17.1C238.5,306.1,210.6,308.9,204.1,310.9"/>
	<path class="st4" d="M527.5,477.3c-1.7,2-3.4,4-5.1,6c-3.3,3.9-7,7.4-11.3,10.1c-2.6,1.7-5.3,2.9-8.4,3.5
		c-6.6,1.2-11.7-2.2-12.8-8.8c-0.2-1,0-2,0-3.4c-2.7,1-4,3.2-5.8,4.6c-2.1,1.6-4,3.5-6.2,5c-2,1.4-4.2,2.4-6.4,3.7
		c-1.3-0.7-2.4-1.1-3.4-1.8c-2.4-1.7-3.4-3.9-2.1-6.9c0.9-2.1,1.6-4.2,2.2-6.3c0.4-1.5,0.5-3.1,0.7-4.6c-2.2-0.5-3,0.9-3.8,2
		c-2.8,3.5-5.5,7.1-8.3,10.6c-2.3,2.9-5.1,5.3-8.6,6.6c-2,0.8-4.3-0.9-4.1-3.1c0.1-0.6,0.2-1.2,0.4-1.8c0.4-1.1,1-2.2,1.5-3.3
		c1.4-2.9,2.9-5.8,4.3-8.7c1.8-1.9,2.8-4.2,3.8-7.8c-1.4,1.3-2.1,1.7-2.5,2.3c-0.9,1.3-1.7,2.7-2.6,4.1c-4,5.2-8.9,9.5-13.9,13.6
		c-3.2,2.6-6.7,4.5-10.8,5.3c-5.7,1.1-10.1-1.1-12.1-6.5c-0.6-1.5-0.8-3.1-1.2-4.8c-3,2.4-5.7,4.8-8.6,7c-2.1,1.6-4.3,3-6.7,4.2
		c-1.6,0.8-3.5,1.2-5.2,1.2c-4,0-6.6-3.7-5.6-7.6c0.8-3.1,2-6.1,2.4-9.5c-1.1,1.3-2.2,2.6-3.3,3.9c-3.6,4.5-7.9,8.2-12.6,11.4
		c-1.5,1-3.2,1.9-4.9,2.5c-3.4,1.1-6.6-1.4-6.7-5c-0.1-3.4,1.6-6.3,2.6-9.3c1.6-1.8,2.4-4,3.2-7.1c-2.3,2.1-3.9,3.6-4.6,5.7
		c-3.5,3.7-6.9,7.5-10.5,11.1c-2.8,2.7-6.1,4.8-10.1,5.2c-5,0.4-7.9-2.2-7.2-7.3c0.5-3.6,1.9-7,3-10.5c0.9-2.9,2.5-5.6,1.7-8.9
		c-2.2-2.1-4.5-1.3-6.8-0.3c-1,3-1.9,5.9-3.1,8.7c-2.3,5.8-5.4,11-10.2,15c-7,5.9-14.9,8.2-23.9,5.4c-4.2-1.3-7.6-3.9-9.8-7.8
		c-2.4-4.2-2.3-8.6,0-12.8c1.6-2.9,4.3-4.3,7.5-4.7c2.6-0.3,5.7,1.4,6.7,3.4c0.9,1.8,0,4.8-2,6.6c-0.6,0.5-1.5,0.8-2,1.4
		c-0.7,0.9-1.5,2-1.7,3.1c-0.7,3.3,1.1,5.1,4.4,4.7c1.5-0.2,3.2-0.7,4.5-1.6c2-1.4,3.8-3.1,5.4-5c2.6-3.2,5-6.4,7.2-9.9
		c3.7-5.8,7.2-11.8,10.7-17.8c1.3-0.9,2-2,1.8-4.3c-1.5,1.2-2.5,2-3.5,2.8c-2.4,1-4.8,2.1-7.3,3c-0.9,0.3-2,0.6-3,0.4
		c-8.7-1.1-11.4-7.4-7.4-13.9c3-4.9,7.7-7.8,13.3-9c0.5-0.1,1.1,0.3,2,0.6c-0.3,1-0.5,2-1,2.8c-0.7,1-1.7,1.8-2.4,2.7
		c-2,2.5-1.4,5.2,1.6,6.4c1.2,0.5,2.8,0.6,4.1,0.4c3.1-0.6,5.6-2.4,7.8-4.5c2.4-2.2,4.7-4.5,7.1-6.7c0.9-0.8,1.9-1.5,3-1.9
		c0.6-0.2,1.7-0.1,2.2,0.4c0.5,0.4,0.7,1.5,0.5,2.1c-0.5,1.3-1.4,2.5-2.1,3.7c-3.1,5.1-5.4,10.5-7.3,16.1c-0.2,0.5-0.1,1.2-0.2,1.7
		c1.4,0.6,1.8-0.6,2.4-1.2c4.2-4.4,8.2-9.1,12.7-13.3c3.4-3.2,7.1-6.1,11-8.7c3-2.1,6.6-3.1,10.4-3c3.7,0,5.9,3.4,5,6.7
		c-0.7,2.7-2.5,4.7-4.7,6.3c-2.3,1.6-4.6,2-7.5,1c-4.9-1.7-9.2-0.2-13,3.1c-2.8,2.4-4.9,5.3-7.5,8.5c2.3,0.8,4-0.1,5.7,0
		c3.6,0.2,5.8,2.5,5.3,6c-0.4,3-1.5,5.9-2.1,8.9c-0.4,1.9-1.5,3.9,0.2,5.8c2.1,0.8,3.6-0.2,4.8-1.7c2.6-3.4,5.2-6.8,7.8-10.2
		c1.7-2.3,3.1-4.8,4.9-7.1c0.8-1.1,2-2,3.2-2.6c1.7-0.9,3.1-0.4,4.4,0.9c2.7,2.7,3.7,5.8,2.2,9.5c-1.3,3.2-2.6,6.4-3.8,9.7
		c-0.5,1.3-0.6,2.7-1,5c8-5.9,13.8-12.6,19.2-20c-0.4-0.6-1-1.2-1.2-1.9c-0.6-1.4-0.2-2.6,1-3c1.7-0.6,3.5-1.1,5.6-1.7
		c1.5-2.5,3.1-5.3,4.8-8.1c0.6-1.1,1.2-2.1,1.9-3.2c0.7-0.9,2.4-1.1,3.3-0.3c2.8,2.4,4.7,5.1,3.5,9.1c-0.2,0.7-0.5,1.5-0.7,2.3
		c1.9,0.6,3.8,1.1,5.6,1.7c-0.2,2.5-1.2,3.7-3.4,3.9c-1.6,0.1-3.2,0.3-5.1,0.4c-4,5.9-7,12.4-9.7,18.9c-0.3,0.6,0.1,1.5,0.3,2.8
		c1.6-0.8,3-1.2,4-2.1c3.9-3.6,7.7-7.2,11.5-11c3.2-3.2,6-6.7,9.2-9.8c2.5-2.5,5.5-4.1,9-5c2.7-0.7,5.3-0.2,7.8,0.8
		c2.9,1.2,4.3,4.2,3.7,7.6c-0.6,3.3-3.6,6.2-6.5,6.4c-1.9,0.1-3.7-1.5-3.5-3.3c0.1-1.5,0.7-3,1.1-4.9c-0.9,0.4-1.8,0.5-2.3,1
		c-4.5,4.6-7.4,10.2-8.5,16.6c-0.8,4.8,1.6,6.5,6.1,4.4c1.8-0.8,3.6-2,5.1-3.3c11.5-10.1,20.7-21.9,27.2-35.8
		c1.3-2.8,2.7-5.5,4.1-8.2c0.4-0.7,0.9-1.3,1.5-1.9c0.9-1,2.3-1.1,3.3-0.2c2.1,1.9,2.8,4.4,3.8,6.9c0.7,2-0.4,3.6-1.1,5.2
		c-1.6,3.7-3.5,7.4-5.3,11c-0.4,0.8-0.6,1.8-0.9,2.5c1.1,1.1,1.8,0.4,2.5,0.1c2.5-1.3,5-2.8,7.5-4.1c1.3-0.6,2.7-1.1,4-1.4
		c3.8-0.8,6.5,2,5.4,5.7c-0.6,1.9-1.4,3.8-2.3,5.6c-1.8,3.7-3.7,7.3-5.4,10.7c0.4,1.8,1.4,2.2,2.8,1.6c0.7-0.3,1.5-0.8,2-1.4
		c3.1-3.2,6.3-6.3,9.3-9.7c3.1-3.5,6.2-7.1,10.2-9.6c2.4-1.5,5-2.8,7.7-3.7c3.5-1.2,6.8,0.1,8.7,2.8c1.8,2.7,1.4,5.4-0.1,8.1
		c-2.9,5.1-7.2,8.8-12.2,11.7c-1.7,1-3.6,1.9-5.3,2.8c0.3,3.3,1.4,4.5,3.7,3.9c3.3-0.7,5.9-2.6,8.4-4.9c6.3-5.8,12.1-12,16.6-19.4
		c1.6-2.6,3.1-5.3,5.9-6.8c5.4,2.2,5.8,2.9,6,10.9c1-0.5,1.8-0.8,2.5-1.3c3.6-3.3,7.3-6.5,11.7-8.8c1.3-0.7,2.6-1.2,4-0.5
		c2.4,1.2,3.4,2.9,2.6,5.5c-0.7,2.3-1.8,4.5-2.8,6.8c-1.3,3-2.8,5.9-4.1,8.9c-0.4,1-0.5,2.3-0.7,3.7c2.9-0.3,4.5-1.9,6-3.4
		c1-1,1.9-2.1,3-3.1c0.3-0.3,1.3-0.3,1.6,0c0.4,0.3,0.5,1.1,0.5,1.6c-0.1,0.6-0.3,1.2-0.7,1.6c-4.1,5.1-8.9,9.5-14.4,13.1
		c-1.9,1.2-4.1,1.7-6.5,1.1c-2.1-0.6-3.5-2.4-3.2-4.5c0.3-1.8,0.8-3.6,1.4-5.3c1.3-3.2,2.8-6.4,4.1-9.5c0.4-0.9,0.7-1.8,1.1-2.6
		c-1.2-1-1.7,0-2.2,0.3c-0.5,0.3-1,0.8-1.3,1.3c-3.7,4.6-7.5,9.2-11.1,13.8c-2,2.6-4.1,5.1-7,6.7c-1.5,0.8-3.3,1.8-5.1,0.4
		c-1.4-1.1-1.5-2.6,0-5.5c1.7-3.5,3.4-6.9,5.1-10.4c1.4-1.2,2.1-2.7,2-5.3C528.7,475.6,528.1,476.5,527.5,477.3 M507.1,477.6
		c4-1.9,6.5-4.6,7.7-8.3c0.2-0.6-0.2-1.5-0.6-2c-0.1-0.2-1.2,0-1.6,0.3c-2.4,2.4-4.7,4.9-5.9,8.2C506.7,476,506.9,476.5,507.1,477.6
		"/>
	<path class="st5" d="M425.3,534.4c1.5,4.1,2.6,7.3,3.8,10.6c3.5,1.1,7-0.1,10.8,0.9c-2.1,3-5.7,4.1-8.1,7c0.9,3.2,1.8,6.7,3,11
		c-3.6-2.5-6.5-4.4-9.6-6.5c-2.8,2-5.6,3.9-8.3,5.9c-1.3-0.9-0.6-1.9-0.3-2.7c0.8-2.5,1.6-5,2.5-7.6c-2.9-2.3-5.5-4.3-9-7.1
		c4.4-0.2,7.7-0.3,11.3-0.5C422.5,541.8,423.8,538.5,425.3,534.4"/>
	<path class="st6" d="M454.2,541.3c3.8-0.2,6.2-0.3,8.8-0.5c0.9-2.4,1.8-4.6,2.8-7.4c0.7,1.2,1.3,1.9,1.7,2.7c0.6,1.5,1.1,3,1.7,4.7
		c2.8,0.2,5.3,0.4,8.3,0.5c-1.4,2.8-4.5,3.3-6.1,6c0.6,2.1,1.2,4.6,2,7.5c-3.2-0.4-4.7-3.3-7.5-4c-2.1,1.3-4.3,2.7-7.1,4.6
		c0.8-3.1,1.5-5.5,2.2-8.3C459.1,545.6,457.1,543.8,454.2,541.3"/>
	<path class="st6" d="M383.5,533.6c1,2.5,1.8,4.7,2.7,7.2c2.6,0.2,5.1,0.4,8.1,0.6c-1.1,2.9-4.3,3.3-5.9,6c0.5,2.1,1.1,4.6,1.9,7.5
		c-3-0.6-4.6-2.9-7.2-4.1c-2.2,1.3-4.5,2.8-7.5,4.7c0.9-3.1,1.5-5.4,2.2-7.8c-1-2.8-4.4-3.3-6.1-6c2.7-1.2,5.4,0.1,7.8-0.9
		C381.8,539,381,535.7,383.5,533.6"/>
	<path class="st4" d="M390.3,448.7c0,4.4-3,8.4-7.1,9.5c-4.6,1.3-8.3-2-7.2-6.6c0.5-2.1,1.7-4.1,3-5.8c1.8-2.2,4.3-2.8,7.1-2.2
		C389.1,444.3,390.3,445.8,390.3,448.7"/>
	<path class="st7" d="M360.9,484.4c0.7-2.2,2.3-3.7,4.6-5.7c-0.7,3.1-1.5,5.3-3.2,7.1C361.9,485.3,361.4,484.8,360.9,484.4"/>
	<path class="st7" d="M449.1,479.4c0.9-1.4,1.7-2.8,2.6-4.1c0.4-0.6,1.1-1.1,2.5-2.3c-1,3.5-1.9,5.8-3.8,7.8
		C450,480.3,449.5,479.8,449.1,479.4"/>
	<path class="st8" d="M322.9,461c1-0.8,2-1.6,3.5-2.8c0.2,2.3-0.5,3.4-1.8,4.3C324,462,323.4,461.5,322.9,461"/>
	<path class="st7" d="M527.5,477.3c0.6-0.8,1.2-1.7,2.3-3.1c0.1,2.7-0.6,4.1-2,5.3C527.7,478.9,527.6,478.1,527.5,477.3"/>
	<path class="st9" d="M420,109.5c-0.3-1.2-0.5-2.4-0.9-3.5c-2.7-6.5-1.5-12.7,1.8-18.7c2.6-4.9,6.3-8.9,10.6-12.4
		c2.8-2.3,5.5-4.8,9.1-5.9c0.3,0.3,0.6,0.6,0.8,0.9c-6.5,7.1-7.2,15.2-3.7,23.9c0.3,0.8,0.5,1.6,0.8,2.3c3.3,7.9,1.7,15.2-3,22
		c-2.2,3.2-4.9,5.9-7.5,9c0.4,1.5,1.9,0.7,3,0.7c24.3,0.1,48.6,0,72.9,0h6.3c0.9,5.7,0,11.2,0.7,16.9c2.2,0.2,4.2,0.3,6.2,0.6
		c2,0.3,4,0.6,6,1c10.8,2.2,22.5,10.1,25.1,23.8c1.5,7.6,0.6,15.1-2.6,22.2c-3.3,7.3-7.7,13.9-13.6,19.5
		c-10.9,10.3-23.6,17.3-38.4,20.4c-1.4,0.3-2.8,0.6-4.2,0.9c-0.4,0.1-0.8,0.3-1.4,0.6c-1.4,2.2-2.8,4.7-4.4,7.1
		c-6.2,9.9-13.6,18.9-22.5,26.6c-9,7.9-19.2,13.9-30.7,17.2c-16.8,4.8-33.1,3.2-48.8-4.3c-12-5.7-22-14-30.6-24
		c-12.7-14.7-21.5-31.7-27.8-50c-5.8-17.1-9.3-34.6-10.2-52.7c-0.3-6.1-0.5-12.2-0.6-18.4c0-2.2,0.2-4.4,0.3-6.3
		c0.5-0.4,0.6-0.6,0.8-0.7c0.2-0.1,0.4-0.1,0.6-0.2c0.2,0,0.4-0.1,0.6-0.1c27.8,0,55.5,0,83.6,0c3.7-3.7,6.7-8,9.1-12.8
		c2.1-4.2,2.7-8.5-0.7-12.4c1-1.2,2-0.6,2.9-0.3c3.7,1.4,6.6,3.9,9.1,7c0.8,2.9,1.7,5.9,0.9,9c-0.8,3-1.8,6-2.8,9.1
		c3.7,0.3,4,0.2,4.8-2.3C423.2,119.8,423,114.5,420,109.5 M375.7,257.3l0.1,0.3l0.3,0c0.3,0.2,0.6,0.5,1,0.7l2.7,1.7
		c0.4,2.4,2.5,2.9,4.2,3.9c3.7,2.2,7.3,1.9,10.9-0.2c4.5-2.6,7.9-6.5,10-11.1c3.9-8.2,5.4-16.9,4.3-26c-0.1-0.9-0.8-1.8-1.3-2.7
		c-0.1-0.6-0.1-1.2-0.2-1.8c0.6-1,0.4-1.7-0.5-2.4c-0.8-2.1-1.6-4.1-2.5-6.2c-4.6-10.7-12.9-13.8-22.9-8.6c-0.8,0.4-1.6,0.8-2.3,1.2
		c-0.9,0.7-1.8,1.4-2.7,2.1c-0.6,0.9-1.1,1.8-1.7,2.7c-2.3,3-4,6.3-4.1,10.2l0.2,0.4c-0.3,0.5-0.5,1.1-0.8,1.6
		c-0.3,0.7-0.7,1.5-0.8,2.2c-1.1,5-0.6,10.1-0.4,15.2c0.2,5.9,2.3,11,5.7,15.8C375.2,256.8,375.4,257.1,375.7,257.3 M388.8,158.7
		c-0.2,0.8-0.4,1.6-0.7,2.4c-0.3,2.3-0.6,4.7-0.9,7c-1.4,9.1,3.5,15.1,10.1,20c2.1,1.6,4.6,2.6,7.1,3.5c5.5,2,11.1,2.8,16.6,0.2
		c3.1-1.5,6.3-3.1,6.1-7.5l0,0c0.4-0.5,0.7-0.9,1.1-1.4c0.8-2.5,1.8-5,2.3-7.6c0.6-3.2,1-6.5-0.8-9.5c-2.2-8.7-7.7-14.5-15.5-18.3
		c-4.1-2-8.6-2.4-13-1.4c-3.6,0.9-6.8,2.5-8.5,6.2c-1.1,1.7-2.3,3.4-3.4,5C389,157.8,388.9,158.2,388.8,158.7 M435.7,202.2
		c-2.4,0.3-5.1,0-7.2,1.8c-5.5,1.6-10,4.3-12.6,9.7c-1.5,1.7-1.5,3.7-1.4,5.7c0.2,5.3,0.9,10.5,4.1,15.1c0,1.6,0.7,2.5,2.3,2.6l0,0
		c1.2,4.4,4.8,6.4,8.5,8c7.6,3.3,15.3,3.1,23.2,1.1c5.8-1.5,11.1-3.8,15.6-7.8c3.6-3.3,6-7.1,5.4-12.3c-0.2-2-0.1-4.1-0.1-6.1
		c0-1.3-0.5-2.4-1.8-2.8c-0.4-4.6-3-7.4-6.9-9.4c-3.4-1.7-6.8-3.8-10.8-3.8c-2.1-0.5-4.2-1.2-6.3-1.4c-2.7-0.3-5.5-0.3-8.3-0.4
		C438.2,201.3,436.9,201.4,435.7,202.2 M496.4,215.8c14.2-3.7,28.2-14,35-25.3c1.9-3.2,3.1-6.6,3.9-10.2c1.2-6-0.6-10.9-5.1-14.8
		c-4.5-4-13.6-6.1-20.5-4.8C507.7,179.2,503.6,197.4,496.4,215.8"/>
	<path class="st10" d="M419.1,404.5c-1.2,0.5-1.7,0.9-2.3,0.9c-4.3,0.1-8.6,0.1-12.9,0.1c-2.3,0-3.9-1.1-4.5-3.4
		c-0.5-2-1.1-3.9-1.7-5.9c-2.1-7.2-4.2-14.5-6.3-21.7c-0.4-1.5-0.9-3-2.3-5.7c-0.3,12.8-0.6,24.2-1,35.5c-2.9,2.3-6.1,1.2-9,1.4
		c-3,0.2-6.1,0-9.5,0c-0.3-1.5-0.8-2.9-0.8-4.2c0.4-26.1,0.9-52.2,1.4-78.4c0.1-6.5,0.2-13.1,0.3-19.6c0-1.4,0.2-2.8,0.3-4.5
		c1.2-0.3,2.4-0.8,3.5-0.9c7.8-0.1,15.5-0.1,23.3-0.2c10-0.2,20,8.6,19.5,20.1c-0.3,7.1-0.4,14.3-0.3,21.4
		c0.1,8.2-2.8,14.7-9.8,19.2c-0.3,0.2-0.5,0.6-1.1,1.2c0.2,1.1,0.4,2.5,0.8,3.8c3.6,11.9,7.3,23.8,10.9,35.7
		C418.3,401,418.6,402.5,419.1,404.5 M390.5,314.8c-1.2,5.8-1.5,25.7-0.5,30.4c0.7,0.1,1.5,0.3,2.3,0.2c4.1-0.3,5.1-1.2,5.2-5.2
		c0.2-7.1,0.3-14.2,0.2-21.3c0-3.2-1.2-4.3-4.4-4.5C392.4,314.4,391.4,314.7,390.5,314.8"/>
	<path class="st10" d="M593,361.9c0.2-11.8,0.7-23.6,0.5-35.4c-0.1-10.4,8.5-19.4,20.6-18.2c2.6,0.2,5.3,0.6,7.9,1.1
		c10.2,1.9,18.1,11.3,18.2,21.7c0.1,9.6-0.2,19.2-0.4,28.7c-0.2,13.4-0.5,26.9-0.7,40.3c0,1.2,0,2.4-0.1,3.7
		c-0.8,8.8-7.6,15.6-16.5,15.8c-3.8,0.1-7.7-0.4-11.5-1c-10.1-1.4-19.2-11.5-18.5-22.4c0.3-5.7,0.2-11.4,0.2-17.1s0-11.4,0-17.1
		C592.8,361.9,592.9,361.9,593,361.9 M612.2,363.2c-0.1,0-0.2,0-0.3,0c0,10.4,0,20.8,0,31.2c0,1.6,0,3.3,0.2,4.9
		c0.3,2.1,2.3,3.2,4.6,3c1.7-0.1,2.7-1.2,2.9-3.3c0.1-1.2,0.1-2.4,0.1-3.7c0.2-7.1,0.4-14.3,0.5-21.4c0.2-13.8,0.4-27.7,0.6-41.6
		c0-1.2,0-2.5-0.2-3.6c-0.4-1.9-2.5-3.2-4.7-3.1c-1.6,0.1-2.7,1.3-2.9,3.4c-0.1,1.2-0.1,2.4-0.1,3.7
		C612.7,342.9,612.4,353,612.2,363.2"/>
	<path class="st10" d="M507.4,331.1c-1.3-2.4-0.6-4.7-0.7-6.9c-0.1-1.8,0.1-3.7-0.1-5.5c-0.2-1.9-1.9-3.1-3.9-3.2
		c-1.9-0.1-3.5,1.2-3.7,3.3c-0.3,4.7-0.4,9.4-0.4,14.1c0,3.1,1.7,5.3,4.1,7.2c5,3.9,9.9,7.9,14.8,11.8c1,0.8,1.9,1.6,2.9,2.3
		c3.4,2.5,4.9,5.9,4.9,10c0,9.4,0.1,18.8-0.4,28.1c-0.4,9-7.8,16.3-17,17.2c-4.7,0.4-9.4,0.2-14-0.9c-9-2.2-15.9-10.7-15.7-19.4
		c0.1-4.9,0.1-9.8,0.2-14.7c0-0.6,0.2-1.2,0.4-2.2c5.6-2.7,11.9-2.8,18.3-4.3c0.3,1.5,0.7,2.6,0.7,3.7c0,4.5-0.1,9-0.2,13.5
		c0,1.2-0.1,2.5,0,3.7c0.2,3,2.1,4.3,5,3.8c1.3-0.2,2.2-1.1,2.5-2.3c0.2-0.8,0.2-1.6,0.2-2.4c0.1-5.9,0.1-11.8,0.3-17.7
		c0.1-4-1.2-7-4.5-9.4c-5.5-4.2-10.7-8.8-16.2-13c-4.5-3.4-6.3-7.7-6.1-13.2c0.2-5.5,0.6-11,0.4-16.5c-0.3-8.9,6.9-19.2,20.2-19.2
		c3,0,6.1,0.3,9.1,0.7c8.8,1.3,16.5,9.3,17.3,18.1c0.3,2.6,0,5.3,0,7.9c0,1.4-0.9,2.5-2.1,2.7C518.5,329.3,513,330.8,507.4,331.1"/>
	<path class="st10" d="M300.2,327c-6.3,3.1-12.4,4.3-18.8,6.3c-0.3-1.7-0.7-2.8-0.7-4c0-2.4,0.2-4.9,0.1-7.3
		c-0.1-2.3-1.4-3.8-3.1-3.9c-2.4-0.1-4.4,1.4-4.8,3.8c-0.1,0.4-0.1,0.8-0.1,1.2c-0.1,4.1,0,8.2-0.2,12.2c-0.1,3.2,1.2,5.4,3.8,7.1
		c5.3,3.4,10.4,7.3,15.8,10.4c5.2,3,7.3,7.3,7.2,13.1c-0.2,8-0.2,15.9-0.4,23.9c-0.3,9-4.5,15.6-12.5,19.6c-6.6,3.3-14,3.7-20.9,2.2
		c-9.2-2.1-12.9-8.9-13.4-15.6c-0.3-5.3,0-10.6,0.2-15.9c0-1.5,0.7-2.7,2.1-3.5c1.8-0.9,13.3-4.4,16.7-5c0.2,1.1,0.6,2.2,0.6,3.3
		c0,5.3-0.2,10.6-0.2,15.9c0,2.9,1.1,4.1,3.3,4.2c2.7,0.1,4.3-1.2,4.7-3.8c0.1-0.8,0.1-1.6,0.1-2.4c0.1-5.3,0-10.6,0.3-15.9
		c0.2-4.5-1.2-7.7-5.3-10.2c-5.2-3.1-10.1-6.9-15.2-10.2c-4.6-2.9-6.8-6.7-6.4-12.2c0.3-5.3,0.1-10.6,0.2-15.9
		c0.3-12.8,9-21.9,21.7-22.8c2-0.2,4.1-0.5,6.1-0.5c7.3,0,13.1,2.8,16.9,9.2c1.4,2.3,2.1,4.9,2.1,7.6
		C300.2,320.9,300.2,323.7,300.2,327"/>
	<path class="st10" d="M554.2,372.3c0.2,5.3,0,10.2-0.1,15.1c0,2-0.1,4.1,0.2,6.1c0.2,2,1.7,3,3.9,3c2.1,0,3.5-1.1,3.6-3.3
		c0.2-7.1,0.2-14.3,0.2-21.4c0-2.7-1.3-4.6-3.3-6.3c-4.2-3.5-8.4-7.1-12.6-10.7c-2-1.7-4.1-3.4-6.1-5.1c-3-2.5-4.6-5.8-4.6-9.6
		c0.1-7.3,0.1-14.7,0.6-22c0.6-7.3,6.7-13.6,14.1-15c5.9-1.1,11.8-0.7,17.5,1.2c8.9,3,14.6,11,14.8,20.4c0,1.8,0,3.7-0.1,5.5
		c0,0.6-0.4,1.1-0.6,1.7c-4,1.7-12.4,3.1-18.3,3c-0.2-1.1-0.5-2.3-0.5-3.4c-0.1-2.6,0.1-5.3,0-8c-0.1-2.4-1.5-3.7-3.8-4
		c-1.7-0.2-3.6,0.8-3.6,2.4c-0.3,5.5-0.4,11-0.3,16.5c0,2.1,1.5,3.7,3.2,5c3.9,3.2,7.8,6.5,11.8,9.8c1.9,1.6,3.7,3.2,5.7,4.7
		c4.3,3.2,6,7.5,5.9,12.8c-0.2,8.2-0.3,16.3-0.3,24.5c0,11.4-9.5,18.9-18.7,18.4c-3.9-0.2-7.7-0.4-11.5-1.1
		c-8.3-1.5-16.9-10.2-16.4-20.8c0.2-5.3,0.2-10.6,0.3-15.7C538.9,373.9,548.5,372.1,554.2,372.3"/>
	<path class="st10" d="M314.1,300.8c9.6-0.7,18.9-1.7,28.3-1.4c9.7,0.4,17.3,8.2,17.4,17.9c0.1,8.6,0.1,17.2-0.3,25.7
		c-0.4,10.6-9,19.2-19.6,20c-2.4,0.2-4.9,0.2-7.7,0.3c-0.2,1.5-0.6,2.8-0.6,4.2c-0.2,11-0.3,22-0.5,33.1c0,2,0.4,4.1-1.3,6.4
		c-4.9,0.3-10.1,0.7-15.4,1c-0.7,0-1.5-0.4-2.2-0.6c-0.2-0.8-0.5-1.3-0.5-1.9c0.5-34.1,1-68.2,1.6-102.2
		C313.4,302.7,313.7,302.1,314.1,300.8 M332.9,316.7c-0.9,9.6-1.1,26-0.3,29.9c0.2,0.1,0.4,0.2,0.6,0.2c5.9,0,6.8-0.9,6.9-6.5
		c0.1-6.1,0.2-12.2,0.2-18.3c0-1.6-0.2-3.2-0.3-4.5C337.8,315.6,335.6,315.9,332.9,316.7"/>
	<path class="st10" d="M469.9,299.7c0,4.5,0,8.5,0,12.6c0,1.4-0.2,2.8-0.4,4.1c-3.3,2.1-6.6,0.7-9.7,0.8c-3.3,0.1-6.5,0-10.2,0
		c-0.2,0.8-0.7,1.9-0.7,3.1c-0.2,4.9-0.2,9.8-0.3,14.7c0,1,0.2,1.9,0.4,3.1c5.4,1,10.7,0.1,16.3,1c0.3,1.1,0.9,2.2,0.9,3.3
		c0,4.6,0.3,9.3-0.4,14.2c-5.8,1.2-11.5-0.2-17,0.6c-0.8,4.7-1.1,23.1-0.6,29.8c1.1,0.2,2.2,0.5,3.4,0.5c4.1,0.1,8.2,0.1,12.2,0.3
		c1.4,0,2.7,0.4,4,0.6c1.2,4.9,1.1,12.2-0.1,17.4c-4.1,1-8.3,0.2-12.6,0.3c-4.5,0-9,0-13.5-0.2c-4.2-0.2-8.5,0.5-13-0.8
		c-0.2-1.2-0.6-2.4-0.5-3.5c0.3-20.8,0.7-41.6,1-62.4c0.2-11.4,0.3-22.8,0.5-34.3c0-2-0.3-4.1,0.8-6.3c4.2-0.7,8.5-0.2,12.7-0.2
		c4.5,0,9,0.1,13.5,0.2C460.8,298.6,465.1,298.4,469.9,299.7"/>
	<path class="st10" d="M204.1,310.9c6.5-2,34.4-4.8,39.6-4c0.8,5.5,0.4,11.1-0.2,17.1c-6.6,1.9-13.5,1.2-20,2.9
		c-1,4.8-1.2,15.9-0.2,20.9c5.2-0.4,10.4-0.9,15.7-1.3c2.1,3,0.8,6.1,0.9,9c0.1,2.8,0.4,5.7-0.5,8.6c-2.7,1.2-5.5,1.3-8.3,1.5
		c-2.8,0.2-5.7,0.2-8.7,1.4c-0.2,9.7-0.4,19.2-0.6,29.2c1.2,0.2,2.3,0.5,3.4,0.4c3.9-0.3,7.7-0.8,11.6-1.1c1.6-0.1,3.2,0,5.1,0
		c0.2,1,0.7,2,0.6,2.9c-0.2,4.8,0.5,9.7-0.6,14.4c-6.2,1.6-34.4,4.5-39.1,4c-0.2-0.7-0.6-1.5-0.6-2.2
		C203.1,380.1,202.8,345.6,204.1,310.9"/>
	<path class="st6" d="M420,109.5c3,5,3.2,10.3,1.6,15.8c-0.8,2.5-1,2.6-4.8,2.3c0.9-3,2-6,2.7-9.1c0.7-3-0.2-6-0.9-9
		C419.1,109.5,419.5,109.5,420,109.5"/>
	<path class="st11" d="M444,66.3c0.6-0.7,1.2-1.1,2-0.4c-0.4,0.4-0.8,0.8-1.2,1.3C444.6,66.9,444.3,66.6,444,66.3"/>
	<path class="st11" d="M444.8,67.2c-0.4,0.2-0.7,0.4-1.1,0.6c-0.7,0-1.3,0-2-0.1c0.7-0.5,1.5-1,2.2-1.5
		C444.3,66.6,444.6,66.9,444.8,67.2"/>
	<path class="st9" d="M441.8,67.8c0.7,0,1.3,0,2,0.1c-0.8,0.7-1.6,1.4-2.4,2.1c-0.3-0.3-0.6-0.6-0.8-0.9
		C440.9,68.6,441.3,68.2,441.8,67.8"/>
	<path class="st2" d="M507.1,477.6c-0.2-1.1-0.5-1.6-0.4-1.9c1.2-3.3,3.5-5.8,5.9-8.2c0.3-0.3,1.4-0.5,1.6-0.3
		c0.4,0.6,0.8,1.5,0.6,2C513.6,473,511.1,475.7,507.1,477.6"/>
	<path class="st12" d="M496.4,215.8c7.2-18.3,11.3-36.5,13.3-55.1c6.9-1.3,16,0.8,20.5,4.8c4.5,3.9,6.4,8.8,5.1,14.8
		c-0.7,3.6-2,7.1-3.9,10.2C524.6,201.8,510.6,212,496.4,215.8"/>
	<path class="st13" d="M454,203.9c4.1,0,7.4,2.1,10.8,3.8c3.9,1.9,6.5,4.8,6.9,9.4c-0.1,1.2-0.4,2.4-0.4,3.6
		c0.1,6.5-3.1,11-8.3,14.7c-3.9,2.8-8.5,3.9-12.9,5.2c-8.9,2.8-17.6,2.1-25.8-2.6c0.1-1.3,0-2.7,0.2-4c0.2-1.1,0.8-2.1,1.2-3.1
		c1.2,0.2,2.4,0.5,3.5,0.5c3.4,0.1,6.7-0.2,9.8-1.8c1.2-0.6,1.2-2.4,0-2.9c-1.1-0.4-2.3-0.5-3.5-0.7c-0.1-0.7-0.3-1.5-0.5-2.6
		c5.9,1.8,11.4,1.6,16.8,0.9c2-3.7,2-3.8,5.8-4.4c2-0.3,3.4-1.3,4.3-2.9c0.2-0.4-0.4-1.3-0.6-2c0.1-1.6,0.1-3.4-1.5-4.2
		c-1.8-1-3.8-1.1-5.6,0.3c-0.3,0.2-0.6,0.7-0.9,0.8c-1.1,0.2-2.2,0.3-3.4,0.5c-1-3.1-3.6-5.1-3.4-8.4
		C449.1,203.8,451.6,203.8,454,203.9"/>
	<path class="st14" d="M379.7,260.1c-0.9-0.6-1.8-1.2-2.7-1.7c0.1-0.3,0.1-0.5,0-0.8c0.1-1.4,0.7-2.2,2.2-2.3
		c1.3-0.1,2.9,0.4,3.7-1.3c-0.2-1.4-0.4-2.8-0.7-4.2c-0.2-1.4-0.8-2.8-0.7-4.2c0.5-5.8,0.9-11.5,1.4-17.3c0.3-3.4,1.4-7,0.8-10.2
		c-0.6-3.4-0.3-6.4,0.6-9.5c0.8,0.8,1.6,1.6,2.4,2.5c0,0.4,0,0.8,0.2,1.1c0.1,0.2,0.5,0.5,0.7,0.5c0.3-0.1,0.6-0.4,0.7-0.7
		c0-0.2-0.3-0.6-0.5-0.7c-0.3-0.2-0.7-0.1-1.1-0.1c0.1-1.6,1-2.4,2.6-2.4c0.8,0,1.5,0,2.3,0c0.1,0.4,0.1,0.8,0.1,1.2
		c-1.4,0.9-1.3,1.7,0.1,2.5c0.1,1.2,0.2,2.3,0.3,3.5c-0.6,0.1-1.2,0.1-1.8,0.2c-1.1,0.1-2.2,0.6-2.1,1.7c0.1,0.9,0.7,2.1,1.4,2.5
		c1,0.5,2.3,0.5,3.5,0.7c-0.4,6.9-2,13.8-1.5,20.8c-2.1,2.9-1.3,6-0.7,9.6c1.9-0.6,3.5-1.1,5.3-1.6c-0.4-1.1-0.6-1.8-0.9-2.5
		c2.3-1.7,2.3-1.7,2.6-5.4c1.5-1.4,1-3.3,1.2-5c2.5-0.2,2.3-2,2.3-3.7c0.5-1.6,0.9-3.3,1.4-4.9c1.6-1.7,1.6-3.3-0.2-4.9
		c-0.1-0.8-0.1-1.6-0.2-2.4c0.9-0.5,1.5-1.3,1.3-2.3c-0.2-0.9-0.6-1.8-0.8-2.8c-0.3-1.5,0.6-2.1,1.9-2.3c0.8,2.1,1.6,4.1,2.5,6.2
		c-1.1,1.1-0.7,1.8,0.5,2.4c0.1,0.6,0.1,1.2,0.2,1.8c-0.5,3.8-0.9,7.7-1.7,11.4c-0.7,3.4-1.9,6.7-3,9.9c-1.8,5-4.6,9.5-8.4,13.3
		c-3.2,3.1-6.7,4.5-11,2.6C382.4,260.8,381,260.5,379.7,260.1"/>
	<path class="st15" d="M429.7,165.8c1.8,3,1.4,6.3,0.8,9.5c-0.5,2.6-1.5,5.1-2.3,7.6c-0.4,0.5-0.7,0.9-1.1,1.4l0,0
		c-0.9,0.4-2,0.6-2.8,1.1c-3.2,2.2-6.7,2.8-10.4,2.7c-6.4-0.1-11.7-3-16.9-6.3c-0.5-0.3-0.6-1.4-0.9-2.1c2.1-0.8,3.9,0.1,5.7,1
		c1,0.4,2.1,0.6,3.2,1c0.7-3.2,0.7-3.2,3.7-3.7c1.7,1.2,3.7,1.5,5.8,1.6c0.4,1.7,1.3,3,3.1,3.3c0.8,0.1,2,0.6,2.5-1
		c-1.5-1.2-3.1-2.3-5-2.7c-0.6-0.8-1-1.7-1.8-2.3c-3.2-2.8-6.7-5.2-9.7-8.2c-3.2-3.2-7.3-4.9-11-7.4c-0.6-0.4-1.6-0.2-2.4-0.2l0,0
		c-0.3-0.8-0.6-1.7-0.8-2.5c0-0.4-0.1-0.8-0.4-1.1c1.1-1.7,2.3-3.4,3.4-5c2.8,0,3.8,2.1,4.5,4.5c1-0.6,1.6-1.1,2.2-1.5
		c4.5,0.9,7.9,3.5,11.1,6.8c3.4,3.4,7.1,6.5,10.7,9.6c1.4,1.2,2.9,2.2,4.9,1.6c1.6-0.3,2.1-1.3,2.2-2.8
		C428.4,168.9,427.8,167,429.7,165.8"/>
	<path class="st16" d="M461.4,214.9c0.2,0.7,0.9,1.6,0.6,2c-0.9,1.6-2.3,2.6-4.3,2.9c-3.8,0.6-3.8,0.7-5.8,4.4
		c-5.4,0.7-10.9,0.9-16.8-0.9c0.2,1.2,0.4,1.9,0.5,2.6c-2.2,0.4-4.4,0.9-6.5,1.2c-2.2,0.3-3.2,1.5-3.3,3.7c-0.4,1-1,2-1.2,3.1
		c-0.2,1.3-0.2,2.7-0.2,4c-1.2-0.3-2.3-0.6-3.5-1l0,0c-0.2-1.4-1.2-2.1-2.3-2.6c-3.2-4.5-3.9-9.7-4.1-15.1c-0.1-2,0-4.1,1.4-5.7
		c1.1,0.2,2.3,0.4,3.3,0.6c0.7,2,1.2,3.8,1.9,5.5c0.4,0.8,1.2,1.9,1.9,2c0.7,0.1,1.8-0.7,2.4-1.3c0.9-1.1,1.4-2.4,1.8-3.1
		c4.5-0.5,8.6-0.6,12.5-1.6c3.7-0.9,7.2-0.5,10.9-0.7C454.3,214.7,457.9,213.9,461.4,214.9"/>
	<path class="st17" d="M461.4,214.9c-3.6-1-7.2-0.2-10.7,0c-3.6,0.2-7.2-0.2-10.9,0.7c-3.8,0.9-7.9,1-12.5,1.6
		c-0.4,0.7-1,2.1-1.8,3.1c-0.6,0.7-1.7,1.5-2.4,1.3c-0.7-0.1-1.6-1.2-1.9-2c-0.8-1.6-1.2-3.4-1.9-5.5c-1-0.2-2.2-0.4-3.3-0.6
		c2.5-5.4,7.1-8.1,12.6-9.7c0.9,0.3,2,1,2.7,0.7c3.5-1.2,7-0.6,10.5-0.8c0.3,2.1-0.1,4-0.8,6c-0.4,1-0.1,2,1.3,2
		c2.5-2.2,1.8-5.2,2.1-8c0.7,0,1.5,0,2.2,0c-0.2,3.3,2.4,5.3,3.4,8.4c1.2-0.2,2.3-0.2,3.4-0.5c0.3-0.1,0.6-0.5,0.9-0.8
		c1.8-1.4,3.8-1.3,5.6-0.3C461.5,211.5,461.5,213.3,461.4,214.9"/>
	<path class="st8" d="M420.9,237c1.2,0.3,2.3,0.6,3.5,1c8.2,4.7,16.9,5.3,25.8,2.6c4.4-1.4,8.9-2.5,12.9-5.2
		c5.1-3.6,8.3-8.2,8.3-14.7c0-1.2,0.3-2.4,0.4-3.6c1.3,0.5,1.8,1.5,1.8,2.8c0,2-0.1,4.1,0.1,6.1c0.6,5.2-1.8,9-5.4,12.3
		c-4.5,4.1-9.8,6.4-15.6,7.8c-7.9,2-15.7,2.3-23.2-1.1C425.7,243.4,422.2,241.4,420.9,237"/>
	<path class="st18" d="M384.3,208.8c-0.9,3.1-1.2,6.1-0.6,9.5c0.6,3.2-0.6,6.8-0.8,10.2c-0.4,5.8-0.9,11.5-1.4,17.3
		c-0.1,1.4,0.5,2.8,0.7,4.2c0.2,1.4,0.4,2.8,0.7,4.2c-1.8-0.1-3.1-1-3.4-2.8c-0.2-1.2-0.3-2.3-0.4-3.5c-1.9-0.1-3.9,0.1-4.2-1.9
		c-0.6-4.3-0.9-8.7-1.2-13.1c0-0.2,0.2-0.4,0.2-0.6c0.3-1.6,0.6-3.2,0.9-4.7c0.1-0.3,0.5-0.5,0.8-0.8c1,0.4,2,0.8,3.3,1.3
		c0.6-1.8,1.1-3.3,1.5-4.9c0.1-0.2,0-0.4,0,0.2c-1-2.4-1.8-3.9-2.4-5.6c-0.4-1.1-1.3-1.4-2.3-1.6c0.4-1.6,0.8-3.3,1.2-4.9
		c0-0.9-0.1-1.8-0.1-2.8c0.9-0.7,1.8-1.4,2.7-2.1c1.6,0.4,3.1,0.8,4.7,1.2C384.3,208,384.3,208.4,384.3,208.8"/>
	<path class="st19" d="M375.7,216.1c1,0.2,1.9,0.5,2.3,1.6c0.6,1.6,1.4,3.2,2.4,5.6c-0.1-0.6,0-0.4,0-0.2c-0.5,1.5-1,3-1.5,4.9
		c-1.3-0.5-2.3-0.9-3.3-1.3c-0.3,0.3-0.8,0.5-0.8,0.8c-0.4,1.6-0.6,3.1-0.9,4.7c0,0.2-0.2,0.4-0.2,0.6c0.4,4.4,0.6,8.8,1.2,13.1
		c0.3,2,2.4,1.8,4.2,1.9c0.1,1.1,0.2,2.3,0.4,3.5c0.3,1.9,1.5,2.7,3.4,2.8c-0.8,1.7-2.3,1.2-3.7,1.3c-1.5,0.1-2.1,0.9-2.2,2.3
		c-0.3,0-0.6,0.1-0.9,0.1l-0.3,0c0,0-0.1-0.3-0.1-0.3c-0.2-0.4-0.4-0.6-0.8-0.7c-3.4-4.7-5.5-9.9-5.7-15.8
		c-0.2-5.1-0.7-10.2,0.4-15.2c0.2-0.8,0.5-1.5,0.8-2.2c0.8-0.3,1.2-0.7,0.8-1.6c0,0-0.2-0.4-0.2-0.4
		C374,221,375.1,219.8,375.7,216.1"/>
	<path class="st20" d="M396.2,179.8c0.3,0.7,0.4,1.7,0.9,2.1c5.2,3.3,10.5,6.2,16.9,6.3c3.8,0,7.3-0.5,10.4-2.7
		c0.8-0.6,1.8-0.8,2.8-1.1c0.2,4.3-3,6-6.1,7.5c-5.5,2.6-11.1,1.8-16.6-0.2c-2.5-0.9-5-1.9-7.1-3.5c-6.6-5-11.5-10.9-10.1-20
		c0.4,0.9,0.9,1.8,1.3,2.7c0.6,1.1,1.2,2.1,2.6,2.3c-0.1,3.6,1.8,5.7,5.1,6.7L396.2,179.8z"/>
	<path class="st18" d="M379.7,260.1c1.4,0.4,2.8,0.7,4.1,1.2c4.4,1.8,7.9,0.5,11-2.6c3.9-3.8,6.6-8.2,8.4-13.3
		c1.2-3.3,2.3-6.6,3-9.9c0.8-3.8,1.1-7.6,1.7-11.4c0.4,0.9,1.2,1.7,1.3,2.7c1.1,9.1-0.4,17.8-4.3,26c-2.2,4.6-5.5,8.4-10,11.1
		c-3.6,2.1-7.2,2.4-10.9,0.2C382.2,263.1,380,262.6,379.7,260.1"/>
	<path class="st19" d="M399.4,155.3c-0.6,0.4-1.3,0.8-2.2,1.5c-0.7-2.4-1.7-4.5-4.5-4.5c1.6-3.7,4.9-5.3,8.5-6.2
		c4.5-1,8.9-0.6,13,1.4c7.8,3.8,13.4,9.7,15.5,18.3c-1.9,1.1-1.3,3-1.4,4.7c-0.1,1.5-0.6,2.6-2.2,2.8c0.2-4.4-0.5-8.5-3.6-11.9
		c-3-3.4-5.5-7.4-9.1-10.4c-0.6-0.5-1.5-0.6-2.2-0.9c-2.5-2.5-5.6-1.1-8.4-1.2c-0.6,0-1.6,0.7-1.8,1.2c-0.2,0.6,0.2,1.5,0.4,2.3
		h-3.2C398.7,153.7,399,154.5,399.4,155.3"/>
	<path class="st21" d="M404.8,213.7c-1.3,0.2-2.2,0.8-1.9,2.3c0.2,0.9,0.6,1.8,0.8,2.8c0.2,1.1-0.3,1.8-1.3,2.3
		c-0.6-0.4-1.6-0.7-1.8-1.3c-0.3-0.9-0.1-1.9-0.1-2.9c0.2-2.5,0.1-2.6-2.3-3.2c-0.6-0.2-1.3-0.3-2.1-0.4c0.6-1.1,1.4-1.7,1.3-2.4
		c0-0.9-0.5-1.9-1.1-2.6c-1-1.5-2.5-2-4.2-1.8c-2.6-2.2-5.3-1.6-8,0c-0.8-0.4-1.6-0.9-2.4-1.3C391.8,199.9,400.1,203,404.8,213.7"/>
	<path class="st22" d="M446.6,203.8c-0.7,0-1.5,0-2.2,0c-0.9,0-1.8,0-2.7,0c-3.5,0.2-7-0.5-10.5,0.8c-0.7,0.3-1.8-0.4-2.7-0.7
		c2.1-1.8,4.7-1.4,7.2-1.8c1.3,0,2.5-0.1,3.8-0.1c2.8,0.1,5.6,0.1,8.3,0.4c2.1,0.2,4.2,0.9,6.3,1.4
		C451.6,203.8,449.1,203.8,446.6,203.8"/>
	<path class="st23" d="M391.1,173c-1.4-0.1-2-1.2-2.6-2.3c-0.5-0.9-0.9-1.8-1.3-2.7c0.3-2.3,0.6-4.7,0.9-7c0.8,0,1.5,0,2.3-0.1l0,0
		c-0.1,4.3,1.4,8.2,2.6,12.2C392.3,173.1,391.7,173,391.1,173"/>
	<path class="st21" d="M375.7,216.1c-0.5,3.6-1.6,4.9-4.7,5.3c0.1-3.9,1.8-7.2,4.1-10.2c0.6,0,1.2,0,1.8,0
		C376.5,212.9,376.1,214.5,375.7,216.1"/>
	<path class="st14" d="M381.9,205.1c0.8,0.4,1.6,0.9,2.4,1.3c0,0.4,0,0.8,0,1.1c-1.6-0.4-3.1-0.8-4.7-1.2
		C380.3,205.9,381.1,205.5,381.9,205.1"/>
	<path class="st22" d="M390.4,161c-0.8,0-1.5,0-2.3,0.1c0.2-0.8,0.4-1.6,0.7-2.4c0.3,0,0.5-0.1,0.8-0.2
		C389.9,159.3,390.1,160.1,390.4,161"/>
	<path class="st18" d="M407.7,222.3c-1.2-0.6-1.6-1.3-0.5-2.4C408.1,220.5,408.3,221.3,407.7,222.3"/>
	<path class="st7" d="M439.4,202c-1.3,0-2.5,0.1-3.8,0.1C436.9,201.4,438.2,201.3,439.4,202"/>
	<path class="st14" d="M376.9,211.2c-0.6,0-1.2,0-1.8,0c0.6-0.9,1.1-1.8,1.7-2.7C376.8,209.4,376.9,210.3,376.9,211.2"/>
	<path class="st8" d="M418.6,234.4c1.2,0.5,2.2,1.2,2.3,2.6C419.3,236.9,418.6,235.9,418.6,234.4"/>
	<path class="st18" d="M376.1,257.7c0.3,0,0.6,0,0.9-0.1c0.1,0.3,0.1,0.5,0,0.8C376.7,258.2,376.4,257.9,376.1,257.7"/>
	<path class="st18" d="M374.9,256.6c0.4,0.1,0.6,0.4,0.8,0.7C375.4,257.1,375.2,256.8,374.9,256.6"/>
	<path class="st21" d="M371.2,221.8c0.4,0.9,0,1.3-0.8,1.6C370.7,222.9,371,222.3,371.2,221.8"/>
	<path class="st20" d="M427.2,184.3c0.3-0.5,0.7-0.9,1.1-1.4C427.9,183.4,427.5,183.8,427.2,184.3"/>
	<path class="st24" d="M389.6,158.5c-0.3,0.1-0.5,0.2-0.8,0.2c0.1-0.4,0.3-0.9,0.4-1.3C389.4,157.7,389.6,158,389.6,158.5"/>
	<path class="st25" d="M390.5,314.8c0.9-0.1,1.9-0.4,2.9-0.3c3.2,0.2,4.4,1.3,4.4,4.5c0,7.1-0.1,14.2-0.2,21.3
		c-0.1,3.9-1.1,4.8-5.2,5.2c-0.8,0.1-1.6-0.1-2.3-0.2C388.9,340.4,389.2,320.6,390.5,314.8"/>
	<path class="st5" d="M612.2,363.2c0.2-10.2,0.5-20.4,0.7-30.6c0-1.2,0-2.5,0.1-3.7c0.2-2,1.3-3.2,2.9-3.4c2.2-0.2,4.3,1.2,4.7,3.1
		c0.2,1.2,0.2,2.4,0.2,3.6c-0.2,13.9-0.3,27.7-0.6,41.6c-0.1,7.1-0.4,14.3-0.5,21.4c0,1.2,0,2.4-0.1,3.7c-0.2,2.1-1.2,3.2-2.9,3.3
		c-2.4,0.2-4.3-1-4.6-3c-0.2-1.6-0.2-3.2-0.2-4.9c0-10.4,0-20.8,0-31.2C612,363.2,612.1,363.2,612.2,363.2"/>
	<path class="st5" d="M332.9,316.7c2.7-0.8,4.8-1.1,7.1,0.8c0.1,1.3,0.3,2.9,0.3,4.5c0,6.1-0.1,12.2-0.2,18.3
		c-0.1,5.6-1.1,6.4-6.9,6.5c-0.2,0-0.4-0.1-0.6-0.2C331.9,342.7,332,326.3,332.9,316.7"/>
	<path class="st18" d="M425.9,230.8c0.1-2.1,1.1-3.3,3.3-3.7c2.2-0.3,4.4-0.8,6.5-1.2c1.2,0.2,2.4,0.3,3.5,0.7
		c1.2,0.5,1.2,2.3,0,2.9c-3.1,1.6-6.4,1.9-9.8,1.8C428.2,231.3,427.1,231,425.9,230.8"/>
	<path class="st26" d="M392.2,206.5c1.7-0.2,3.2,0.3,4.2,1.8c0.5,0.8,1,1.7,1.1,2.6c0,0.7-0.7,1.3-1.3,2.4c0.8,0.2,1.4,0.3,2.1,0.4
		c2.4,0.6,2.5,0.7,2.3,3.2c-0.1,1-0.2,2,0.1,2.9c0.2,0.6,1.2,0.9,1.8,1.3c0.1,0.8,0.1,1.6,0.2,2.4c-1.5,2.5-1.4,2.8,0.2,4.9
		c-0.5,1.6-0.9,3.3-1.4,4.9c-0.4,0-0.8,0-1.1,0c-2.7,0.6-2.9,1.2-1.2,3.7c-0.2,1.7,0.3,3.6-1.2,5c-2.1,0-4.2-0.1-6.3-0.1
		c-0.5-7,1.2-13.9,1.5-20.8c1.4-2.9,1.3-3.5-1-5c-0.1-1.2-0.2-2.3-0.3-3.5c1.1-0.9,1-1.7-0.1-2.5c0-0.4,0-0.8-0.1-1.2
		C391.8,208,392,207.2,392.2,206.5"/>
	<path class="st18" d="M391.5,241.8c2.1,0,4.2,0.1,6.3,0.1c-0.3,3.7-0.3,3.7-2.6,5.4c0.3,0.7,0.5,1.4,0.9,2.5
		c-1.8,0.5-3.4,1-5.3,1.6C390.2,247.9,389.4,244.8,391.5,241.8"/>
	<path class="st21" d="M392.1,216c2.3,1.5,2.4,2.2,1,5c-1.2-0.2-2.5-0.1-3.5-0.7c-0.7-0.4-1.3-1.6-1.4-2.5c-0.1-1.2,1-1.6,2.1-1.7
		C390.9,216.1,391.5,216,392.1,216"/>
	<path class="st27" d="M392.2,206.5c-0.2,0.8-0.4,1.6-0.6,2.3c-0.8,0-1.5,0-2.3,0c-1.6,0-2.5,0.8-2.6,2.4h0
		c-0.8-0.8-1.6-1.6-2.4-2.5c0-0.4,0-0.8,0-1.2c0-0.4,0-0.8,0-1.1C386.9,204.8,389.6,204.3,392.2,206.5"/>
	<path class="st18" d="M399.1,237c-1.7-2.5-1.5-3.1,1.2-3.7c0.4-0.1,0.8,0,1.1,0C401.3,235,401.5,236.8,399.1,237"/>
	<path class="st21" d="M402.8,228.3c-1.7-2.1-1.7-2.4-0.2-4.9C404.3,225,404.3,226.6,402.8,228.3"/>
	<path class="st21" d="M391.7,210c1.1,0.8,1.1,1.6,0.1,2.5C390.4,211.7,390.3,210.9,391.7,210"/>
	<path class="st21" d="M386.7,211.2c0.4,0,0.8,0,1.1,0.1c0.2,0.1,0.5,0.5,0.5,0.7c-0.1,0.3-0.4,0.6-0.7,0.7c-0.2,0-0.6-0.2-0.7-0.5
		C386.7,212,386.7,211.6,386.7,211.2L386.7,211.2z"/>
	<path class="st24" d="M411.2,150.1c0.7,0.3,1.6,0.4,2.2,0.9c3.6,3,6,6.9,9.1,10.4c3,3.4,3.8,7.5,3.6,11.9c-2,0.6-3.5-0.4-4.9-1.6
		c-3.6-3.2-7.3-6.2-10.7-9.6c-3.2-3.2-6.6-5.9-11.1-6.7c-0.3-0.8-0.7-1.6-1.2-2.9c1.4,0,2.3,0,3.2,0c0.7,0.4,1.3,1,2,1.1
		C406.6,153.9,409.3,152.8,411.2,150.1"/>
	<path class="st22" d="M393,173.1c-1.2-4-2.7-7.9-2.6-12.2c0.8,0.1,1.8-0.2,2.4,0.2c3.6,2.5,7.8,4.2,11,7.4c3,3,6.5,5.4,9.7,8.2
		c0.7,0.6,1.2,1.5,1.8,2.3c-0.2,0.2-0.3,0.4-0.5,0.5c-2-0.1-4-0.3-5.8-1.6c-3.4-3.9-7.9-6.4-12.2-9.3c-0.1-0.1-0.4,0.1-0.9,0.3
		c0.1,0.6,0.1,1.4,0.2,2c0.5,1.8-0.7,2-1.9,2.2C393.7,173.2,393.3,173.2,393,173.1"/>
	<path class="st23" d="M394,173.3c1.2-0.2,2.4-0.5,1.9-2.2c-0.2-0.7-0.2-1.4-0.2-2c0.6-0.2,0.8-0.3,0.9-0.3
		c4.3,2.8,8.8,5.3,12.2,9.3c-3,0.5-3,0.5-3.7,3.7c-1.1-0.3-2.2-0.5-3.2-1c-1.8-0.8-3.6-1.8-5.7-1c0,0,0-0.1,0.1-0.1
		c0.3-1.2-0.2-2.2-0.8-3.3C394.8,175.5,394.5,174.3,394,173.3"/>
	<path class="st22" d="M415.1,179.1c2,0.4,3.6,1.5,5,2.7c-0.5,1.7-1.6,1.2-2.5,1.1c-1.8-0.3-2.7-1.6-3.1-3.3
		C414.8,179.4,415,179.2,415.1,179.1"/>
	<path class="st13" d="M441.7,203.8c0.9,0,1.8,0,2.7,0c-0.3,2.8,0.4,5.8-2.1,8c-1.5,0-1.7-1-1.3-2
		C441.6,207.8,442,205.9,441.7,203.8"/>
	<path class="st15" d="M394,173.3c0.5,1,0.8,2.2,1.4,3.1c0.7,1,1.1,2,0.8,3.3c-3.4-1-5.2-3.1-5.1-6.7c0.6,0,1.2,0.1,1.9,0.1
		C393.3,173.2,393.7,173.2,394,173.3"/>
	<path class="st22" d="M411.2,150.1c-1.9,2.7-4.6,3.8-7.8,3.4c-0.7-0.1-1.3-0.7-2-1.1c-0.2-0.8-0.6-1.6-0.4-2.3
		c0.2-0.6,1.2-1.3,1.8-1.2C405.6,149,408.7,147.6,411.2,150.1"/>
</g>
</svg>
